<?xml version="1.0" standalone="no"?>
<!DOCTYPE svg PUBLIC "-//W3C//DTD SVG 20010904//EN"
 "http://www.w3.org/TR/2001/REC-SVG-20010904/DTD/svg10.dtd">
<svg version="1.0" xmlns="http://www.w3.org/2000/svg"
 width="320.000000pt" height="159.000000pt" viewBox="0 0 320.000000 159.000000"
 preserveAspectRatio="xMidYMid meet">
<metadata>
Created by potrace 1.16, written by Peter Selinger 2001-2019
</metadata>
<g transform="translate(0.000000,159.000000) scale(0.100000,-0.100000)"
fill="#000000" stroke="none">
<path d="M965 840 l0 -221 39 3 40 3 0 215 1 215 -40 3 -40 3 0 -221z"/>
<path d="M2178 968 c-3 -39 -6 -43 -31 -46 -25 -3 -28 -7 -25 -35 2 -27 7 -32
28 -32 25 0 25 -1 30 -98 6 -118 20 -137 101 -137 55 0 63 8 49 44 -7 19 -17
26 -35 26 -32 0 -36 12 -38 97 l-2 68 38 3 c33 3 37 6 37 32 0 26 -4 29 -37
32 -37 3 -38 4 -41 46 -3 41 -4 42 -37 42 -33 0 -34 -1 -37 -42z"/>
<path d="M2 823 c3 -115 5 -131 26 -160 46 -64 159 -64 206 0 18 25 21 45 24
158 l4 129 -31 0 -31 0 0 -118 c0 -105 -2 -121 -20 -140 -26 -28 -71 -28 -96
-1 -16 18 -20 40 -22 140 l-4 119 -30 0 -30 0 4 -127z"/>
<path d="M320 784 l0 -165 33 3 32 3 1 60 c1 83 20 83 74 0 38 -59 46 -65 76
-65 19 0 34 3 34 7 0 3 -18 30 -40 59 -22 29 -40 56 -40 59 0 3 15 18 32 34
27 24 33 36 33 71 0 35 -6 47 -33 71 -30 27 -38 29 -117 29 l-85 0 0 -166z"/>
<path d="M695 916 c-94 -41 -122 -160 -59 -244 59 -76 177 -82 243 -11 28 30
27 34 -9 49 -28 11 -33 10 -54 -9 -31 -29 -80 -28 -111 4 -14 13 -25 29 -25
35 0 6 42 10 116 10 l117 0 -6 46 c-2 26 -13 58 -24 73 -40 55 -123 75 -188
47z"/>
<path d="M1180 912 c-53 -29 -73 -63 -78 -131 -6 -76 19 -120 84 -152 77 -37
155 -17 208 55 29 39 29 133 0 172 -35 47 -70 67 -126 71 -39 3 -62 -1 -88
-15z m108 -58 c26 -7 52 -51 52 -89 0 -16 -12 -39 -30 -57 -26 -25 -36 -29
-63 -24 -43 8 -67 39 -67 88 0 64 45 98 108 82z"/>
<path d="M1535 907 c-48 -27 -75 -76 -75 -135 0 -141 165 -213 268 -117 31 29
35 36 22 45 -32 22 -58 22 -88 0 -55 -41 -122 -2 -122 70 0 46 34 90 70 90 22
0 61 -17 70 -31 6 -9 80 10 80 21 0 9 -52 56 -77 69 -36 18 -104 13 -148 -12z"/>
<path d="M1865 916 c-48 -21 -59 -40 -35 -61 19 -18 22 -18 56 -2 19 9 43 17
52 17 26 0 62 -29 62 -49 0 -15 -6 -17 -42 -11 -96 14 -158 -26 -158 -101 0
-77 89 -122 162 -81 30 16 38 17 38 6 0 -10 12 -14 40 -14 l40 0 0 106 c0 124
-14 164 -65 188 -40 19 -109 20 -150 2z"/>
<path d="M2616 907 c-107 -61 -100 -224 12 -278 75 -37 153 -16 206 55 29 39
29 133 0 173 -55 74 -142 94 -218 50z m147 -78 c9 -12 17 -38 17 -59 0 -77
-95 -116 -142 -59 -28 33 -23 94 8 126 21 21 32 24 62 19 20 -3 45 -15 55 -27z"/>
<path d="M3020 910 c-30 -24 -40 -25 -40 -5 0 10 -11 15 -35 15 l-35 0 0 -150
0 -150 40 0 40 0 0 95 c0 88 2 98 25 120 30 31 69 32 89 3 12 -17 16 -48 16
-120 l0 -98 40 0 40 0 0 108 c0 119 -15 167 -60 189 -37 19 -91 15 -120 -7z"/>
<path d="M2400 770 l0 -150 40 0 40 0 0 150 0 150 -40 0 -40 0 0 -150z"/>
</g>
</svg>
